<svg width="21" height="19" viewBox="0 0 21 19" fill="none" xmlns="http://www.w3.org/2000/svg">
<path d="M10.0049 0C13.3186 0 16.0049 2.68629 16.0049 6V7H20.0049V9H18.8379L18.0813 18.083C18.0381 18.6013 17.6048 19 17.0847 19H2.92502C2.40493 19 1.97166 18.6013 1.92847 18.083L1.17088 9H0.00488281V7H4.00488V6C4.00488 2.68629 6.69117 0 10.0049 0ZM16.8309 9H3.17788L3.84488 17H16.1639L16.8309 9ZM11.0049 11V15H9.0049V11H11.0049ZM7.00488 11V15H5.00488V11H7.00488ZM15.0049 11V15H13.0049V11H15.0049ZM10.0049 2C7.86269 2 6.1138 3.68397 6.00978 5.80036L6.00488 6V7H14.0049V6C14.0049 3.8578 12.3209 2.10892 10.2045 2.0049L10.0049 2Z" fill="white"/>
</svg>
